<?xml version="1.0" encoding="iso-8859-1"?>
<!-- Generator: Adobe Illustrator 18.0.0, SVG Export Plug-In . SVG Version: 6.00 Build 0)  -->
<!DOCTYPE svg PUBLIC "-//W3C//DTD SVG 1.1//EN" "http://www.w3.org/Graphics/SVG/1.1/DTD/svg11.dtd">
<svg version="1.1" id="Capa_1" xmlns="http://www.w3.org/2000/svg" xmlns:xlink="http://www.w3.org/1999/xlink" x="0px" y="0px"
	 viewBox="0 0 417.885 417.885" style="enable-background:new 0 0 417.885 417.885;" xml:space="preserve">
<g>
	<path style="stroke:#000000;stroke-width:0;stroke-linecap:round;stroke-linejoin:round;" d="M285.083,278.997H132.804
		l-13.507,32.814l-2.342,5.69h29.362c-0.041-0.257-0.079-0.515-0.079-0.783v-4.907v-9.329c0-2.755,2.233-4.989,4.989-4.989
		c2.755,0,4.989,2.233,4.989,4.989v9.329v4.907c0,0.268-0.038,0.526-0.079,0.783h47.897c-0.041-0.257-0.079-0.515-0.079-0.783
		v-4.907v-9.329c0-2.755,2.233-4.989,4.989-4.989c2.755,0,4.989,2.233,4.989,4.989v9.329v4.907c0,0.268-0.038,0.526-0.079,0.783
		h47.897c-0.041-0.257-0.079-0.515-0.079-0.783v-4.907v-9.329c0-2.755,2.233-4.989,4.989-4.989s4.989,2.233,4.989,4.989v9.329v4.907
		c0,0.268-0.038,0.526-0.079,0.783h29.362l-2.342-5.69L285.083,278.997z"/>
	<path style="stroke:#000000;stroke-width:0;stroke-linecap:round;stroke-linejoin:round;" d="M414.985,150.922
		c-0.994-2.892-4.515-5.142-7.454-5.142c-12.728,0-25.456,0-38.183,0c-2.94,0-6.461,2.251-7.454,5.142
		c-1.366,3.976-2.239,7.347-2.64,10.547c-16.795-32.338-35.393-68.331-35.393-68.331c-1.829-5.111-6.246-8.854-11.586-9.82
		c-34.4-6.222-69.163-9.376-103.322-9.376c-34.158,0-68.928,3.154-103.341,9.376c-5.34,0.965-9.759,4.709-11.588,9.819
		c0,0-18.598,35.994-35.393,68.331c-0.401-3.199-1.274-6.571-2.64-10.547c-0.993-2.892-4.514-5.142-7.453-5.142
		c-12.727,0-25.456,0-38.183,0c-2.939,0-6.46,2.251-7.455,5.142c-3.867,11.258-3.864,17.704,0.001,28.963
		c0.994,2.892,4.515,5.142,7.454,5.142c12.704,0,25.408,0,38.111,0c0.008,0.476,0.035,0.95,0.088,1.424
		c-8.037,2.438-13.888,9.899-13.888,18.732v82.176v4.872v42.301c0,5.197,4.211,9.41,9.409,9.41h47.362c5.197,0,9.41-4.213,9.41-9.41
		v-22.722h7.661l16.342-39.702c0.77-1.87,2.591-3.09,4.613-3.09h158.962c2.022,0,3.844,1.22,4.613,3.09l16.341,39.702h7.661v22.722
		c0,5.197,4.213,9.41,9.41,9.41h47.362c5.197,0,9.409-4.213,9.409-9.41v-42.301v-4.872v-82.176c0-8.833-5.851-16.294-13.888-18.732
		c0.053-0.474,0.08-0.948,0.088-1.424c12.703,0,25.407,0,38.111,0c2.939,0,6.46-2.249,7.455-5.142
		C418.853,168.626,418.851,162.18,414.985,150.922z M115.019,104.224c0,0,22.741-5.772,93.924-5.772s93.923,5.772,93.923,5.772
		l33.38,80.803H81.64L115.019,104.224z M73.533,244.042v-26.548h57.499l17.084,26.548H73.533z M344.352,244.042h-74.583
		l17.084-26.548h57.499V244.042z"/>
</g>
<g>
</g>
<g>
</g>
<g>
</g>
<g>
</g>
<g>
</g>
<g>
</g>
<g>
</g>
<g>
</g>
<g>
</g>
<g>
</g>
<g>
</g>
<g>
</g>
<g>
</g>
<g>
</g>
<g>
</g>
</svg>
