<?xml version="1.0" encoding="iso-8859-1"?>
<!-- Generator: Adobe Illustrator 19.0.0, SVG Export Plug-In . SVG Version: 6.00 Build 0)  -->
<svg version="1.1" id="Layer_1" xmlns="http://www.w3.org/2000/svg" xmlns:xlink="http://www.w3.org/1999/xlink" x="0px" y="0px"
	 viewBox="0 0 512 512" style="enable-background:new 0 0 512 512;" xml:space="preserve">
<g>
	<g>
		<g>
			<path d="M384,290.133h-64c-4.719,0-8.533,3.823-8.533,8.533s3.814,8.533,8.533,8.533h64c4.719,0,8.533-3.823,8.533-8.533
				S388.719,290.133,384,290.133z"/>
			<path d="M384,324.267h-55.467c-4.719,0-8.533,3.823-8.533,8.533c0,4.71,3.814,8.533,8.533,8.533H384
				c4.719,0,8.533-3.823,8.533-8.533C392.533,328.09,388.719,324.267,384,324.267z"/>
			<path d="M384,392.533h-64c-4.719,0-8.533,3.823-8.533,8.533s3.814,8.533,8.533,8.533h64c4.719,0,8.533-3.823,8.533-8.533
				S388.719,392.533,384,392.533z"/>
			<path d="M213.333,307.2c-23.526,0-42.667,19.14-42.667,42.667c0,23.526,19.14,42.667,42.667,42.667
				c23.526,0,42.667-19.14,42.667-42.667C256,326.34,236.86,307.2,213.333,307.2z M213.333,375.467c-14.114,0-25.6-11.486-25.6-25.6
				s11.486-25.6,25.6-25.6s25.6,11.486,25.6,25.6S227.447,375.467,213.333,375.467z"/>
			<path d="M435.2,0H76.8C53.274,0,34.133,19.14,34.133,42.667v51.2c0,4.71,3.823,8.533,8.533,8.533H435.2
				c4.719,0,8.533-3.823,8.533-8.533c0-4.71-3.814-8.533-8.533-8.533h-384V42.667c0-14.114,11.486-25.6,25.6-25.6h358.4
				c14.114,0,25.6,11.486,25.6,25.6V435.2c0,14.114-11.486,25.6-25.6,25.6c-4.719,0-8.533,3.823-8.533,8.533v25.6H85.333v-17.067
				h315.733c4.719,0,8.533-3.823,8.533-8.533s-3.814-8.533-8.533-8.533H76.8c-14.114,0-25.6-11.486-25.6-25.6V128
				c0-4.71-3.823-8.533-8.533-8.533c-4.71,0-8.533,3.823-8.533,8.533v307.2c0,20.608,14.686,37.837,34.133,41.805v26.462
				c0,4.71,3.823,8.533,8.533,8.533h358.4c4.719,0,8.533-3.823,8.533-8.533v-26.462c19.447-3.959,34.133-21.197,34.133-41.805
				V42.667C477.867,19.14,458.726,0,435.2,0z"/>
			<path d="M384,358.4h-55.467c-4.719,0-8.533,3.823-8.533,8.533s3.814,8.533,8.533,8.533H384c4.719,0,8.533-3.823,8.533-8.533
				S388.719,358.4,384,358.4z"/>
			<path d="M324.267,51.2c0,9.412,7.654,17.067,17.067,17.067c9.412,0,17.067-7.654,17.067-17.067
				c0-9.412-7.654-17.067-17.067-17.067C331.921,34.133,324.267,41.788,324.267,51.2z"/>
			<path d="M392.533,51.2c0,9.412,7.654,17.067,17.067,17.067c9.412,0,17.067-7.654,17.067-17.067
				c0-9.412-7.654-17.067-17.067-17.067C400.188,34.133,392.533,41.788,392.533,51.2z"/>
			<path d="M93.867,42.667c-4.71,0-8.533,3.823-8.533,8.533s3.823,8.533,8.533,8.533h68.267c4.71,0,8.533-3.823,8.533-8.533
				s-3.823-8.533-8.533-8.533H93.867z"/>
			<path d="M294.4,273.067H384c4.719,0,8.533-3.823,8.533-8.533c0-4.71-3.814-8.533-8.533-8.533h-89.6
				c-4.719,0-8.533,3.823-8.533,8.533C285.867,269.244,289.681,273.067,294.4,273.067z"/>
			<path d="M418.133,443.733c14.114,0,25.6-11.486,25.6-25.6V145.067c0-14.114-11.486-25.6-25.6-25.6H93.867
				c-14.114,0-25.6,11.486-25.6,25.6v273.067c0,14.114,11.486,25.6,25.6,25.6H418.133z M85.333,418.133V145.067
				c0-4.702,3.831-8.533,8.533-8.533h324.267c4.71,0,8.533,3.831,8.533,8.533v273.067c0,4.702-3.823,8.533-8.533,8.533H93.867
				C89.165,426.667,85.333,422.835,85.333,418.133z"/>
			<path d="M150.315,407.885c3.763-2.833,4.523-8.183,1.681-11.955c-10.112-13.44-15.462-29.363-15.462-46.063
				c0-42.342,34.458-76.8,76.8-76.8s76.8,34.458,76.8,76.8c0,16.7-5.35,32.623-15.471,46.063c-2.833,3.772-2.082,9.122,1.69,11.955
				c1.536,1.161,3.337,1.715,5.12,1.715c2.594,0,5.154-1.178,6.827-3.396c12.365-16.435,18.901-35.908,18.901-56.337
				c0-51.755-42.112-93.867-93.867-93.867c-51.755,0-93.867,42.112-93.867,93.867c0,20.429,6.536,39.902,18.901,56.337
				C141.193,409.958,146.543,410.735,150.315,407.885z"/>
		</g>
	</g>
</g>
<g>
</g>
<g>
</g>
<g>
</g>
<g>
</g>
<g>
</g>
<g>
</g>
<g>
</g>
<g>
</g>
<g>
</g>
<g>
</g>
<g>
</g>
<g>
</g>
<g>
</g>
<g>
</g>
<g>
</g>
</svg>
