<?xml version='1.0' encoding='iso-8859-1'?>
<svg version="1.1" xmlns="http://www.w3.org/2000/svg" viewBox="0 0 463 463" xmlns:xlink="http://www.w3.org/1999/xlink" enable-background="new 0 0 463 463">
  <path d="M455.5,412H367v-25h56.5c2.428,0,4.706-1.175,6.113-3.154c1.407-1.979,1.769-4.517,0.971-6.81l-64-184  c-1.048-3.015-3.891-5.036-7.083-5.036s-6.035,2.021-7.083,5.036l-5.856,16.835l-27.814-104.304  c-0.875-3.283-3.849-5.567-7.247-5.567s-6.371,2.284-7.247,5.567L290.3,157.891l-27.502-116.12C261.997,38.389,258.976,36,255.5,36  s-6.497,2.389-7.298,5.771l-31.097,131.3L206.7,137.4c-0.934-3.2-3.867-5.4-7.2-5.4s-6.267,2.2-7.2,5.4l-42.626,146.145  l-38.927-145.978c-0.875-3.283-3.849-5.567-7.247-5.567s-6.371,2.284-7.247,5.567l-64,240c-0.601,2.251-0.121,4.654,1.299,6.502  C34.972,385.917,37.17,387,39.5,387H96v25H7.5c-4.142,0-7.5,3.358-7.5,7.5s3.358,7.5,7.5,7.5h448c4.142,0,7.5-3.358,7.5-7.5  S459.642,412,455.5,412z M352,412h-33v-25h33V412z M248,355v57h-41v-57H248z M263,355h33.081l-7.665,22.036  c-0.798,2.293-0.436,4.831,0.971,6.81S293.072,387,295.5,387h8.5v25h-41V355z M359.5,218.33L412.951,372H367v-13.394l13.803-13.803  c2.929-2.929,2.929-7.678,0-10.606c-2.929-2.929-7.678-2.929-10.606,0L367,337.394V323.5c0-4.142-3.358-7.5-7.5-7.5  s-7.5,3.358-7.5,7.5v31.998c0,0.001,0,0.003,0,0.005V372h-45.951l5.913-17H327.5c2.293,0,4.46-1.049,5.883-2.848  c1.422-1.799,1.944-4.149,1.416-6.381l-7.95-33.567L359.5,218.33z M311.5,136.608l26.274,98.526l-17.359,49.907l-22.812-96.319  L311.5,136.608z M255.5,76.043L318.016,340H263v-16.498c0-0.001,0-0.003,0-0.005v-20.891l21.803-21.803  c2.929-2.929,2.929-7.678,0-10.606c-2.929-2.929-7.678-2.929-10.606,0L263,281.394V251.5c0-4.142-3.358-7.5-7.5-7.5  s-7.5,3.358-7.5,7.5v47.998c0,0.001,0,0.003,0,0.005v5.891l-19.197-19.197c-2.929-2.929-7.678-2.929-10.606,0  c-2.929,2.929-2.929,7.678,0,10.606L248,326.606V340h-55.016L255.5,76.043z M199.5,166.286l10.565,36.225  c0.011,0.039,0.028,0.075,0.04,0.114L181.358,324h-20.896l-3.325-12.469L199.5,166.286z M49.262,372L103.5,168.608L157.738,372H111  v-16.498c0-0.001,0-0.003,0-0.005V315.5c0-4.142-3.358-7.5-7.5-7.5s-7.5,3.358-7.5,7.5v21.894l-11.197-11.197  c-2.929-2.929-7.678-2.929-10.606,0c-2.929,2.929-2.929,7.678,0,10.606L96,358.606V372H49.262z M111,387h56.5  c2.33,0,4.528-1.083,5.947-2.931c1.42-1.848,1.9-4.25,1.299-6.502L164.462,339h13.343l-1.604,6.771  c-0.528,2.231-0.007,4.582,1.416,6.381c1.422,1.798,3.59,2.848,5.883,2.848h8.5v57h-81V387z"/>
</svg>
